<?xml version="1.0" encoding="UTF-8" standalone="no"?>
<svg
   xmlns:dc="http://purl.org/dc/elements/1.1/"
   xmlns:cc="http://creativecommons.org/ns#"
   xmlns:rdf="http://www.w3.org/1999/02/22-rdf-syntax-ns#"
   xmlns:svg="http://www.w3.org/2000/svg"
   xmlns="http://www.w3.org/2000/svg"
   xmlns:sodipodi="http://sodipodi.sourceforge.net/DTD/sodipodi-0.dtd"
   xmlns:inkscape="http://www.inkscape.org/namespaces/inkscape"
   sodipodi:docname="logo.svg"
   inkscape:version="1.0 (4035a4fb49, 2020-05-01)"
   id="svg8"
   version="1.1"
   viewBox="0 0 177.32573 55.082512"
   height="55.082512mm"
   width="177.32573mm">
  <defs
     id="defs2">
    <rect
       id="rect16"
       height="20.04192"
       width="46.968849"
       y="114.66599"
       x="49.2314" />
  </defs>
  <sodipodi:namedview
     inkscape:window-maximized="0"
     inkscape:window-y="27"
     inkscape:window-x="25"
     inkscape:window-height="1016"
     inkscape:window-width="1530"
     showgrid="false"
     inkscape:document-rotation="0"
     inkscape:current-layer="layer1"
     inkscape:document-units="mm"
     inkscape:cy="59.161948"
     inkscape:cx="350.48055"
     inkscape:zoom="1.2157144"
     inkscape:pageshadow="2"
     inkscape:pageopacity="0.0"
     borderopacity="1.0"
     bordercolor="#666666"
     pagecolor="#ffffff"
     id="base" />
  <metadata
     id="metadata5">
    <rdf:RDF>
      <cc:Work
         rdf:about="">
        <dc:format>image/svg+xml</dc:format>
        <dc:type
           rdf:resource="http://purl.org/dc/dcmitype/StillImage" />
        <dc:title></dc:title>
      </cc:Work>
    </rdf:RDF>
  </metadata>
  <g
     transform="translate(-16.106241,-102.8211)"
     id="layer1"
     inkscape:groupmode="layer"
     inkscape:label="Layer 1">
    <text
       id="text12"
       y="147.58556"
       x="14.841885"
       style="font-style:normal;font-variant:normal;font-weight:normal;font-stretch:normal;font-size:22.5778px;line-height:1.25;font-family:Pacifico;-inkscape-font-specification:Pacifico;fill:#487500;fill-opacity:1;stroke-width:0.264583"
       xml:space="preserve"><tspan
         style="font-style:normal;font-variant:normal;font-weight:normal;font-stretch:normal;font-size:22.5778px;font-family:Pacifico;-inkscape-font-specification:Pacifico;fill:#487500;fill-opacity:1;stroke-width:0.264583"
         y="147.58556"
         x="14.841885"
         id="tspan10"
         sodipodi:role="line">Apartment  Herbs</tspan></text>
    <text
       style="font-size:10.5833px;line-height:1.25;font-family:P052;-inkscape-font-specification:P052;white-space:pre;shape-inside:url(#rect16);"
       id="text14"
       xml:space="preserve" />
    <g
       transform="matrix(0.61244485,0,0,0.59236719,108.43532,102.22873)"
       id="g102">
      <g
         fill="#83bf4f"
         id="g80">
        <path
           sodipodi:nodetypes="scscs"
           d="m 48.5,38.4 c -8,0 -10.1,-6.6 -10.1,-6.6 0,0 2.1,-8.3 10.1,-8.3 5.5,0 14.5,7.5 14.5,7.5 0,0 -9,7.4 -14.5,7.4 z"
           id="path76" />
        <path
           d="m 18,6.7 c 6.3,6.4 2.6,13.6 2.6,13.6 0,0 -7.7,4.4 -14,-2 C 2.3,13.9 1,1 1,1 1,1 13.7,2.3 18,6.7 Z"
           id="path78" />
      </g>
      <g
         fill="#75a843"
         id="g86">
        <path
           sodipodi:nodetypes="cccccccccccsccccc"
           d="M 63,31 C 58,30 52.9,29.4 47.9,30 43,30.5 38,32.3 34.7,35.7 c -1.7,1.7 -2.9,3.7 -3.5,5.9 -0.1,0.5 -0.2,1.1 -0.3,1.6 -0.1,0.6 0,1 0,1.7 l 0.2,3.8 2.471881,27.842869 -7.843415,2.085358 L 27.6,48.7 27.8,44.9 c 0,-0.6 0.1,-1.4 0.2,-2.1 0.1,-0.7 0.3,-1.4 0.5,-2.1 0.9,-2.7 2.6,-5 4.7,-6.7 2.1,-1.8 4.5,-3 7,-3.9 2.5,-0.8 5.1,-1.2 7.7,-1.3 C 53,28.6 58.1,29.6 63,31"
           id="path82" />
        <path
           d="m 1,1 c 5.2,3.2 10,7.2 14.2,11.7 4.2,4.5 8,9.4 11.1,14.8 1.5,2.7 3,5.5 3.9,8.7 0.2,0.8 0.4,1.6 0.5,2.5 l 0.1,2.4 0.2,4.6 0.8,18.3 h -5 l 0.8,-18.4 0.2,-4.6 0.1,-1.1 c 0,-0.4 0,-0.8 0,-1.1 0,-0.6 -0.1,-1.3 -0.3,-2 C 27,34 25.8,31.2 24.4,28.5 21.7,23.1 18.2,18.1 14.3,13.4 10.5,8.7 6.1,4.5 1,1"
           id="path84" />
      </g>
    </g>
  </g>
</svg>
